<?xml version="1.0" encoding="UTF-8"?>
<svg id="Calque_1" data-name="Calque 1" xmlns="http://www.w3.org/2000/svg" viewBox="0 0 1366 768">
  <defs>
    <style>
      .cls-1 {
        fill: #f3f3e7;
      }

      .cls-1, .cls-2 {
        stroke-width: 0px;
      }

      .cls-2 {
        fill: #6e9277;
      }
    </style>
  </defs>
  <path class="cls-1" d="m567.15,325.55c99.25-115.72,217.66-32.65,235.27,0s-11.12,145.82-94.11,161.75c-82.99,15.93-240.41-46.02-141.16-161.75Z"/>
  <path class="cls-2" d="m714.75,451.51c-104.51,20.32-138.58-76.15-135.33-101.58s66.15-74.81,120.41-47.67c54.26,27.13,119.43,128.93,14.92,149.25Z"/>
  <path class="cls-1" d="m720.45,396.49c-34.45,64.44-87.86,26.56-96.93,10.39-9.07-16.17-3.53-76.17,29.77-88.1,33.3-11.93,101.61,13.27,67.16,77.71Z"/>
  <path class="cls-1" d="m658.05,522.05s67.73,91.61,29.09,133.6c-38.64,41.99-29.09-133.6-29.09-133.6Z"/>
  <path class="cls-1" d="m548.62,259.92s-112.43-18.43-114.02-75.47,114.02,75.47,114.02,75.47Z"/>
  <path class="cls-1" d="m801.07,250.15s54.75-99.92,109.07-82.46c54.33,17.46-109.07,82.46-109.07,82.46Z"/>
  <path class="cls-1" d="m540.34,479.81s-26.89,110.71-83.89,107.98,83.89-107.98,83.89-107.98Z"/>
  <path class="cls-1" d="m507.51,371.7s-91.61,67.73-133.6,29.09c-41.99-38.64,133.6-29.09,133.6-29.09Z"/>
  <path class="cls-1" d="m830.78,373.71s99.49,55.52,136.22,11.85c36.73-43.67-136.22-11.85-136.22-11.85Z"/>
  <path class="cls-1" d="m674.24,213.54s-56.71-98.82-13.48-136.07c43.22-37.25,13.48,136.07,13.48,136.07Z"/>
  <path class="cls-1" d="m793.81,487.14s111.72,22.35,111.31,79.41c-.41,57.06-111.31-79.41-111.31-79.41Z"/>
</svg>